<svg width="1024" height="1024" viewBox="0 0 1024 1024" fill="none" xmlns="http://www.w3.org/2000/svg">
  <rect x="90" y="114" width="844" height="808" rx="192" fill="#121212" opacity="0.16" />
  <rect x="82" y="82" width="860" height="860" rx="192" fill="#1E1E1E" />
  <rect x="82" y="82" width="860" height="860" rx="192" stroke="#343434" stroke-width="16" />
  <g filter="url(#markShadow)" transform="translate(512 525) scale(0.64) translate(-512 -512)">
    <path
      d="M380.337 453.333C380.337 428.89 400.128 409.068 424.534 409.068C448.941 409.068 468.731 428.89 468.731 453.333M380.337 453.333L343.591 273.018C339.813 249.524 319.553 232.25 295.776 232.25C266.343 232.25 243.71 258.307 247.806 287.483L291.948 546.615C291.948 546.615 301.611 635.578 311.36 661.083C323.267 709.411 350.832 740.434 350.832 792.278M380.337 453.333V512.25C380.337 536.693 400.128 556.5 424.534 556.5C448.941 556.5 468.731 536.693 468.731 512.25V497.503M557.143 423.842C557.152 399.418 576.935 379.624 601.33 379.624C625.736 379.624 645.526 399.433 645.526 423.861L645.521 482.833C645.521 507.276 625.731 527.083 601.325 527.083C576.919 527.083 557.129 507.276 557.129 482.833M557.143 423.842L557.129 482.833M557.143 423.842V438.588C557.143 414.145 537.353 394.323 512.946 394.323C488.54 394.323 468.749 414.145 468.749 438.588V497.503M557.129 482.833L557.134 497.583C557.139 522.023 537.353 541.75 512.946 541.75C488.54 541.75 468.749 521.943 468.749 497.503M645.526 525.729L693.255 477.808C714.208 456.779 748.707 458.7 767.211 481.934C781.361 499.713 781.753 524.849 768.161 543.056L662.123 678.636C641.837 704.57 630.815 744.561 630.815 777.5"
      stroke="#F5F5F5"
      stroke-width="40"
      stroke-linecap="round"
      stroke-linejoin="round"
    />
  </g>
  <defs>
    <filter id="markShadow" x="228" y="208" width="568" height="612" filterUnits="userSpaceOnUse" color-interpolation-filters="sRGB">
      <feDropShadow dx="0" dy="14" stdDeviation="12" flood-color="#000000" flood-opacity="0.22" />
    </filter>
  </defs>
</svg>
